<svg id="Calque_1" data-name="Calque 1" xmlns="http://www.w3.org/2000/svg" viewBox="0 0 400.12 341.53"><defs><style>.cls-1{fill:#439cb2;}</style></defs><rect class="cls-1" x="192.84" y="-40.83" width="14.98" height="467.86" transform="translate(205.44 448.9) rotate(-135)"/><rect class="cls-1" x="275.43" y="158.4" width="14.98" height="234.58" transform="translate(677.91 248.19) rotate(135)"/><path class="cls-1" d="M0,274.13v13.81a1723.34,1723.34,0,0,1,400.12,0V274.13A1607.94,1607.94,0,0,0,0,274.13Z" transform="translate(0 -22.39)"/><path class="cls-1" d="M106.93,285.7" transform="translate(0 -22.39)"/><rect class="cls-1" x="328.2" y="70.53" width="14.98" height="78.58" transform="translate(20.67 247.14) rotate(-45)"/><rect class="cls-1" x="328.2" y="115.91" width="14.98" height="78.58" transform="translate(208.07 -214.3) rotate(45)"/><rect class="cls-1" x="338.81" y="162.35" width="14.98" height="137.27" transform="translate(754.5 127.06) rotate(135)"/><path class="cls-1" d="M416.7,217.87" transform="translate(0 -22.39)"/></svg>